<svg xmlns="http://www.w3.org/2000/svg" width="1080" height="1080" viewBox="0 0 1080 1080" version="1.1"><path d="M 277 524 L 277 645 341.500 645 L 406 645 406 628.015 L 406 611.030 376.750 610.765 L 347.500 610.500 347.244 524.265 L 346.989 438.030 376.244 437.765 L 405.500 437.500 405.774 420.250 L 406.047 403 341.524 403 L 277 403 277 524 M 675.226 420.250 L 675.500 437.500 704.756 437.765 L 734.011 438.030 733.756 524.265 L 733.500 610.500 704.250 610.765 L 675 611.030 675 628.015 L 675 645 740 645 L 805 645 805 524 L 805 403 739.976 403 L 674.953 403 675.226 420.250 M 820.667 409.667 C 820.300 410.033, 820 424.208, 820 441.167 L 820 472 851.500 472 L 883 472 883 440.500 L 883 409 852.167 409 C 835.208 409, 821.033 409.300, 820.667 409.667 M 844 424.500 C 844 426.425, 844.450 428, 845 428 C 845.593 428, 846 431.667, 846 437 C 846 442.333, 845.593 446, 845 446 C 844.450 446, 844 447.575, 844 449.500 L 844 453 852 453 L 860 453 860 449.500 C 860 447.575, 859.550 446, 859 446 C 858.407 446, 858 442.333, 858 437 C 858 431.667, 858.407 428, 859 428 C 859.550 428, 860 426.425, 860 424.500 L 860 421 852 421 L 844 421 844 424.500 M 479.750 424.750 C 512.887 424.896, 567.112 424.896, 600.250 424.750 C 633.387 424.604, 606.275 424.484, 540 424.484 C 473.725 424.484, 446.612 424.604, 479.750 424.750 M 444 475.730 C 507.629 476.421, 557.001 476.430, 557 475.750 C 557 475.337, 526.063 475.104, 488.250 475.232 C 450.438 475.359, 430.525 475.583, 444 475.730 M 820.667 523.667 C 820.300 524.033, 820 538.208, 820 555.167 L 820 586 836 586 L 852 586 852 588.395 C 852 589.712, 851.113 593.661, 850.029 597.170 C 846.797 607.636, 839.994 612.571, 827.034 613.853 L 820.500 614.500 820.500 630 L 820.500 645.500 828 645.139 C 850.724 644.043, 869.721 633.368, 877.134 617.527 C 882.448 606.172, 882.964 601.122, 882.983 560.250 L 883 523 852.167 523 C 835.208 523, 821.033 523.300, 820.667 523.667 M 841.001 545.211 C 839.170 551.970, 837.295 557.650, 836.836 557.833 C 836.376 558.017, 836 559.704, 836 561.583 L 836 565 843 565 L 850 565 850 561.500 C 850 559.089, 849.543 558, 848.531 558 C 847.637 558, 847.288 557.414, 847.638 556.500 C 847.966 555.645, 849.458 555, 851.107 555 C 853.012 555, 854 555.512, 854 556.500 C 854 557.325, 853.550 558, 853 558 C 852.450 558, 852 559.575, 852 561.500 L 852 565 860 565 L 868 565 868 561.583 C 868 559.704, 867.546 558.015, 866.992 557.831 C 866.437 557.646, 864.518 552.096, 862.728 545.497 L 859.472 533.500 851.902 533.211 L 844.331 532.922 841.001 545.211 M 850.002 544.500 C 849.986 545.600, 849.701 547.513, 849.370 548.750 C 848.926 550.404, 849.195 551, 850.383 551 C 852.217 551, 852.614 546.498, 851 544 C 850.196 542.756, 850.026 542.841, 850.002 544.500" stroke="none" fill="#5f39aa" fill-rule="evenodd"/><path d="M 844 424.500 C 844 426.425, 844.450 428, 845 428 C 845.593 428, 846 431.667, 846 437 C 846 442.333, 845.593 446, 845 446 C 844.450 446, 844 447.575, 844 449.500 L 844 453 852 453 L 860 453 860 449.500 C 860 447.575, 859.550 446, 859 446 C 858.407 446, 858 442.333, 858 437 C 858 431.667, 858.407 428, 859 428 C 859.550 428, 860 426.425, 860 424.500 L 860 421 852 421 L 844 421 844 424.500 M 420 450 L 420 475 488.500 475 C 526.175 475, 556.975 475.337, 556.945 475.750 C 556.915 476.163, 526.203 499.928, 488.695 528.562 L 420.500 580.625 420.233 606.312 L 419.966 632 539.983 632 L 660 632 660 606.500 L 660 581 591.441 581 C 553.734 581, 523.116 580.621, 523.403 580.157 C 523.690 579.693, 554.529 555.956, 591.935 527.407 L 659.946 475.500 659.973 450.250 L 660 425 540 425 L 420 425 420 450 M 841.001 545.211 C 839.170 551.970, 837.295 557.650, 836.836 557.833 C 836.376 558.017, 836 559.704, 836 561.583 L 836 565 843 565 L 850 565 850 561.500 C 850 559.089, 849.543 558, 848.531 558 C 847.637 558, 847.288 557.414, 847.638 556.500 C 847.966 555.645, 849.458 555, 851.107 555 C 853.012 555, 854 555.512, 854 556.500 C 854 557.325, 853.550 558, 853 558 C 852.450 558, 852 559.575, 852 561.500 L 852 565 860 565 L 868 565 868 561.583 C 868 559.704, 867.546 558.015, 866.992 557.831 C 866.437 557.646, 864.518 552.096, 862.728 545.497 L 859.472 533.500 851.902 533.211 L 844.331 532.922 841.001 545.211 M 850.002 544.500 C 849.986 545.600, 849.701 547.513, 849.370 548.750 C 848.926 550.404, 849.195 551, 850.383 551 C 852.217 551, 852.614 546.498, 851 544 C 850.196 542.756, 850.026 542.841, 850.002 544.500" stroke="none" fill="#000000" fill-rule="evenodd"/></svg>